<svg width="99" height="100" viewBox="0 0 99 100" fill="none" xmlns="http://www.w3.org/2000/svg">
<path d="M83.8 99.5H15.2C6.89995 99.5 0.0999756 92.8 0.0999756 84.4V15.8C0.0999756 7.5 6.79995 0.699997 15.2 0.699997H83.8C92.1001 0.699997 98.9 7.4 98.9 15.8V84.4C98.8 92.7 92.1001 99.5 83.8 99.5Z" fill="black"/>
<path d="M53.9 30.3C53.2 29 52.3 28 51.1 27.3C49.9 26.6 48.6 26.2 47.2 26.2C45.9 26.2 44.8 26.5 43.8 27C42.8 27.5 42 28.1 41.5 28.9V26.5L38.1 27.5V50.2H41.5V40.5C42.1 41.3 42.9 41.9 43.9 42.4C44.9 42.9 46 43.2 47.2 43.2C48.6 43.2 49.9 42.8 51.1 42.1C52.3 41.4 53.2 40.4 53.9 39.1C54.6 37.8 54.9 36.3 54.9 34.7C54.9 33.1 54.6 31.6 53.9 30.3ZM50.8 37.6C50.3 38.5 49.7 39.1 49 39.5C48.2 39.9 47.4 40.2 46.5 40.2C45.6 40.2 44.8 40 44.1 39.5C43.3 39.1 42.7 38.4 42.3 37.6C41.8 36.8 41.6 35.8 41.6 34.6C41.6 33.5 41.8 32.5 42.3 31.7C42.8 30.9 43.4 30.2 44.1 29.8C44.9 29.4 45.7 29.1 46.5 29.1C47.4 29.1 48.2 29.3 49 29.7C49.8 30.1 50.4 30.8 50.8 31.6C51.3 32.4 51.5 33.4 51.5 34.5C51.5 35.6 51.2 36.8 50.8 37.6Z" fill="white"/>
<path d="M73 30.3C72.3 29 71.4 28 70.2 27.3C69 26.6 67.7 26.2 66.3 26.2C65 26.2 63.9 26.5 62.9 27C61.9 27.5 61.1 28.1 60.6 28.9V26.5L57.2 27.5V50.2H60.6V40.5C61.2 41.3 62 41.9 63 42.4C64 42.9 65.1 43.2 66.3 43.2C67.7 43.2 69 42.8 70.2 42.1C71.4 41.4 72.3 40.4 73 39.1C73.7 37.8 74 36.3 74 34.7C74 33.1 73.7 31.6 73 30.3ZM69.9 37.6C69.4 38.5 68.8 39.1 68.1 39.5C67.3 39.9 66.5 40.2 65.6 40.2C64.7 40.2 63.9 40 63.2 39.5C62.4 39.1 61.8 38.4 61.4 37.6C60.9 36.8 60.7 35.8 60.7 34.6C60.7 33.5 60.9 32.5 61.4 31.7C61.9 30.9 62.5 30.2 63.2 29.8C64 29.4 64.8 29.1 65.6 29.1C66.5 29.1 67.3 29.3 68.1 29.7C68.9 30.1 69.5 30.8 69.9 31.6C70.4 32.4 70.6 33.4 70.6 34.5C70.6 35.6 70.3 36.8 69.9 37.6Z" fill="white"/>
<path d="M28.3 20.9L22.3 22.5L15 43H18.7L21.1 36L24.5 37.2L29.5 34.9L32 43H35.8L28.3 20.9ZM24.5 34.3L22 33.4L24.8 25.3L26.3 24.9L28.7 32.4L24.5 34.3Z" fill="white"/>
<path d="M84 74.6C84 75.5 83.7 76.4 83.2 77.1C82.7 77.8 81.9 78.4 81 78.8C80.1 79.2 78.9 79.4 77.7 79.4C76.4 79.4 75.3 79.2 74.2 78.7C73.2 78.2 72.4 77.6 71.8 76.8C71.6 76.5 71.4 76.2 71.2 75.8H71.3L74.4 74.6C74.5 75.1 74.8 75.5 75.3 75.9C75.9 76.4 76.7 76.6 77.6 76.6C78.6 76.6 79.3 76.4 79.8 76.1C80.3 75.7 80.6 75.3 80.6 74.7C80.6 74.1 80.3 73.6 79.7 73.3C79.5 73.2 79.2 73.1 78.9 73C78.5 72.8 78 72.7 77.5 72.5C77.3 72.4 77.1 72.4 76.9 72.3C75.7 72 74.7 71.6 73.9 71.3C73.1 71 72.5 70.5 71.9 69.8C71.3 69.1 71 68.3 71 67.2C71 66.3 71.3 65.5 71.8 64.8C72.3 64.1 73.1 63.5 74 63.1C75 62.7 76.1 62.5 77.3 62.5C79.2 62.5 80.7 63 81.8 63.9C82.5 64.5 83 65.2 83.3 66.1H83.2L80.1 67.3C80 66.8 79.7 66.3 79.3 66C78.8 65.6 78 65.3 77.1 65.3C76.2 65.3 75.5 65.5 75 65.8C74.5 66.1 74.3 66.6 74.3 67.1C74.3 67.5 74.5 67.9 74.8 68.2C75.1 68.5 75.5 68.7 76 68.9C76.5 69.1 77.1 69.3 78 69.5C79.2 69.8 80.2 70.1 80.9 70.5C81.7 70.8 82.3 71.3 82.9 71.9C83.7 72.7 84 73.5 84 74.6Z" fill="white"/>
<path d="M43.4 62.7V79.2H40V63.7L43.4 62.7Z" fill="white"/>
<path d="M43.4 57.5V60.5L40.1 61.5V58.5L43.4 57.5Z" fill="white"/>
<path d="M61.8 69.5V79.2H58.4V70C58.4 68.5 58 67.4 57.3 66.6C56.6 65.8 55.6 65.4 54.3 65.4C53 65.4 52 65.8 51.3 66.6C50.6 67.4 50.2 68.5 50.2 70V79.2H46.8V63.8L50.2 62.8V64.7C50.8 64 51.5 63.5 52.3 63.1C53.2 62.7 54.1 62.5 55.1 62.5C56.4 62.5 57.5 62.8 58.6 63.3C59.6 63.8 60.4 64.6 61 65.7C61.5 66.7 61.8 68 61.8 69.5Z" fill="white"/>
<path d="M68.5 57.5V60.5L65.1 61.5V58.5L68.5 57.5Z" fill="white"/>
<path d="M68.5 62.7V79.2H65.1V63.7L68.5 62.7Z" fill="white"/>
<path d="M36.7 58.6V79.2H33.3V65.1L27 79.2H24.7L18.4 65.1V79.2H15V59.7L18.6 58.6L25.9 74.8L32.5 59.8L36.7 58.6Z" fill="white"/>
</svg>
