<svg width="257" height="61" viewBox="0 0 257 61" fill="none" xmlns="http://www.w3.org/2000/svg">
<path d="M121.7 52.6C122 52.1 122.4 51.7 122.9 51.4C123.4 51.1 124 51 124.6 51C125.3 51 126 51.2 126.5 51.5C127 51.9 127.4 52.4 127.7 53H126.9C126.7 52.5 126.4 52.2 126 51.9C125.6 51.6 125.1 51.5 124.6 51.5C124.1 51.5 123.7 51.6 123.3 51.8C122.9 52 122.6 52.4 122.4 52.8C122.2 53.2 122.1 53.7 122.1 54.3C122.1 54.9 122.2 55.4 122.4 55.8C122.6 56.2 122.9 56.6 123.3 56.8C123.7 57 124.1 57.1 124.6 57.1C125.2 57.1 125.6 57 126 56.7C126.4 56.4 126.7 56.1 126.9 55.6H127.7C127.5 56.2 127.1 56.7 126.5 57.1C126 57.5 125.3 57.6 124.6 57.6C124 57.6 123.4 57.5 122.9 57.2C122.4 56.9 122 56.5 121.7 56C121.4 55.5 121.3 54.9 121.3 54.2C121.2 53.7 121.4 53.2 121.7 52.6Z" fill="white"/>
<path d="M131.3 52.7C131.6 52.5 132 52.4 132.4 52.4V53.1H132.2C131.7 53.1 131.3 53.2 131 53.5C130.7 53.8 130.6 54.2 130.6 54.8V57.7H129.9V52.5H130.6V53.4C130.7 53.1 131 52.9 131.3 52.7Z" fill="white"/>
<path d="M139.1 54.9C139.1 54.5 139 54 138.8 53.7C138.6 53.3 138.3 53 137.9 52.8C137.5 52.6 137.1 52.5 136.6 52.5C136.1 52.5 135.7 52.6 135.3 52.8C134.9 53 134.6 53.3 134.4 53.7C134.2 54.1 134.1 54.6 134.1 55.1C134.1 55.6 134.2 56.1 134.4 56.5C134.6 56.9 134.9 57.2 135.3 57.4C135.7 57.6 136.1 57.7 136.6 57.7C137.2 57.7 137.8 57.5 138.2 57.2C138.6 56.9 138.9 56.5 139 55.9H138.3C138.2 56.3 138 56.5 137.7 56.8C137.4 57 137 57.1 136.6 57.1C136.3 57.1 136 57 135.7 56.9C135.4 56.8 135.2 56.5 135 56.3C134.8 56 134.7 55.7 134.7 55.3H139.1C139.1 55.3 139.1 55.1 139.1 54.9ZM134.7 54.9C134.7 54.3 134.9 53.9 135.3 53.5C135.7 53.2 136.1 53 136.6 53C136.9 53 137.2 53.1 137.5 53.2C137.8 53.3 138 53.6 138.2 53.8C138.4 54.1 138.4 54.4 138.4 54.8H134.7V54.9Z" fill="white"/>
<path d="M145.6 52.5V53.6C145.4 53.2 145.2 53 144.8 52.7C144.4 52.5 144 52.4 143.5 52.4C143 52.4 142.6 52.5 142.2 52.7C141.8 52.9 141.5 53.2 141.3 53.6C141.1 54 141 54.5 141 55C141 55.5 141.1 56 141.3 56.4C141.5 56.8 141.8 57.1 142.2 57.3C142.6 57.5 143 57.6 143.5 57.6C144 57.6 144.4 57.5 144.8 57.2C145.2 57 145.4 56.7 145.6 56.3V57.5H146.3V52.3H145.6V52.5ZM145.3 56.3C145.1 56.6 144.9 56.9 144.6 57C144.3 57.2 144 57.3 143.6 57.3C143.2 57.3 142.9 57.2 142.6 57C142.3 56.8 142.1 56.6 141.9 56.3C141.7 56 141.6 55.6 141.6 55.2C141.6 54.8 141.7 54.4 141.9 54.1C142.1 53.8 142.3 53.5 142.6 53.4C142.9 53.2 143.2 53.1 143.6 53.1C144 53.1 144.3 53.2 144.6 53.4C144.9 53.6 145.1 53.8 145.3 54.1C145.5 54.4 145.6 54.8 145.6 55.2C145.6 55.6 145.5 55.9 145.3 56.3Z" fill="white"/>
<path d="M149.6 53.1V56.4C149.6 56.7 149.7 56.9 149.8 57.1C149.9 57.2 150.1 57.3 150.4 57.3H151V57.9H150.3C149.8 57.9 149.5 57.8 149.2 57.6C149 57.4 148.9 57 148.9 56.5V53.2H148.2V52.6H148.9V51.3H149.6V52.6H151V53.2H149.6V53.1Z" fill="white"/>
<path d="M157.8 54.9C157.8 54.5 157.7 54 157.5 53.7C157.3 53.3 157 53 156.6 52.8C156.2 52.6 155.8 52.5 155.3 52.5C154.8 52.5 154.4 52.6 154 52.8C153.6 53 153.3 53.3 153.1 53.7C152.9 54.1 152.8 54.6 152.8 55.1C152.8 55.6 152.9 56.1 153.1 56.5C153.3 56.9 153.6 57.2 154 57.4C154.4 57.6 154.8 57.7 155.3 57.7C155.9 57.7 156.5 57.5 156.9 57.2C157.3 56.9 157.6 56.5 157.7 55.9H157C156.9 56.3 156.7 56.5 156.4 56.8C156.1 57 155.7 57.1 155.3 57.1C155 57.1 154.7 57 154.4 56.9C154.1 56.8 153.9 56.5 153.7 56.3C153.5 56 153.4 55.7 153.4 55.3H157.8C157.8 55.3 157.8 55.1 157.8 54.9ZM153.5 54.9C153.5 54.3 153.7 53.9 154.1 53.5C154.5 53.2 154.9 53 155.4 53C155.7 53 156 53.1 156.3 53.2C156.6 53.3 156.8 53.6 157 53.8C157.2 54.1 157.2 54.4 157.2 54.8H153.5V54.9Z" fill="white"/>
<path d="M167.9 52.5V53.6C167.7 53.2 167.5 53 167.1 52.7C166.7 52.5 166.3 52.4 165.8 52.4C165.3 52.4 164.9 52.5 164.5 52.7C164.1 52.9 163.8 53.2 163.6 53.6C163.4 54 163.3 54.5 163.3 55C163.3 55.5 163.4 56 163.6 56.4C163.8 56.8 164.1 57.1 164.5 57.3C164.9 57.5 165.3 57.6 165.8 57.6C166.3 57.6 166.7 57.5 167.1 57.2C167.5 57 167.7 56.7 167.9 56.3V57.5H168.6V52.3H167.9V52.5ZM167.6 56.3C167.4 56.6 167.2 56.9 166.9 57C166.6 57.2 166.3 57.3 165.9 57.3C165.5 57.3 165.2 57.2 164.9 57C164.6 56.8 164.4 56.6 164.2 56.3C164 56 163.9 55.6 163.9 55.2C163.9 54.8 164 54.4 164.2 54.1C164.4 53.8 164.6 53.5 164.9 53.4C165.2 53.2 165.5 53.1 165.9 53.1C166.3 53.1 166.6 53.2 166.9 53.4C167.2 53.6 167.4 53.8 167.6 54.1C167.8 54.4 167.9 54.8 167.9 55.2C167.9 55.6 167.8 55.9 167.6 56.3Z" fill="white"/>
<path d="M176 53.7C175.8 53.3 175.5 53 175.1 52.8C174.7 52.6 174.3 52.5 173.8 52.5C173.3 52.5 172.9 52.6 172.5 52.9C172.1 53.1 171.9 53.4 171.7 53.8V52.7H171V60.4H171.7V56.8C171.9 57.2 172.1 57.4 172.5 57.7C172.9 57.9 173.3 58.1 173.8 58.1C174.3 58.1 174.7 58 175.1 57.8C175.5 57.6 175.8 57.3 176 56.9C176.2 56.5 176.3 56 176.3 55.5C176.3 54.6 176.2 54.1 176 53.7ZM175.4 56.3C175.2 56.6 175 56.9 174.7 57C174.4 57.2 174.1 57.3 173.7 57.3C173.3 57.3 173 57.2 172.7 57C172.4 56.8 172.2 56.6 172 56.3C171.8 56 171.7 55.6 171.7 55.2C171.7 54.8 171.8 54.4 172 54.1C172.2 53.8 172.4 53.5 172.7 53.4C173 53.2 173.3 53.1 173.7 53.1C174.1 53.1 174.4 53.2 174.7 53.4C175 53.6 175.2 53.8 175.4 54.1C175.6 54.4 175.7 54.8 175.7 55.2C175.6 55.6 175.5 55.9 175.4 56.3Z" fill="white"/>
<path d="M183.4 53.7C183.2 53.3 182.9 53 182.5 52.8C182.1 52.6 181.7 52.5 181.2 52.5C180.7 52.5 180.3 52.6 179.9 52.9C179.5 53.1 179.3 53.4 179.1 53.8V52.7H178.4V60.4H179.1V56.8C179.3 57.2 179.5 57.4 179.9 57.7C180.3 57.9 180.7 58.1 181.2 58.1C181.7 58.1 182.1 58 182.5 57.8C182.9 57.6 183.2 57.3 183.4 56.9C183.6 56.5 183.7 56 183.7 55.5C183.8 54.6 183.6 54.1 183.4 53.7ZM182.8 56.3C182.6 56.6 182.4 56.9 182.1 57C181.8 57.2 181.5 57.3 181.1 57.3C180.7 57.3 180.4 57.2 180.1 57C179.8 56.8 179.6 56.6 179.4 56.3C179.2 56 179.1 55.6 179.1 55.2C179.1 54.8 179.2 54.4 179.4 54.1C179.6 53.8 179.8 53.5 180.1 53.4C180.4 53.2 180.7 53.1 181.1 53.1C181.5 53.1 181.8 53.2 182.1 53.4C182.4 53.6 182.6 53.8 182.8 54.1C183 54.4 183.1 54.8 183.1 55.2C183.1 55.6 183 55.9 182.8 56.3Z" fill="white"/>
<path d="M186.3 57.4C185.9 57.1 185.7 56.7 185.7 56.3H186.4C186.4 56.6 186.6 56.8 186.8 57C187 57.2 187.4 57.3 187.8 57.3C188.2 57.3 188.5 57.2 188.7 57C188.9 56.8 189 56.6 189 56.4C189 56.2 188.9 56.1 188.8 56C188.7 55.9 188.5 55.8 188.4 55.7C188.2 55.6 188 55.6 187.7 55.5C187.3 55.4 187 55.3 186.7 55.2C186.5 55.1 186.2 54.9 186.1 54.7C185.9 54.5 185.8 54.2 185.8 53.9C185.8 53.6 185.9 53.4 186 53.2C186.2 53 186.4 52.8 186.7 52.7C187 52.6 187.3 52.5 187.7 52.5C188.3 52.5 188.7 52.6 189.1 52.9C189.4 53.2 189.6 53.6 189.7 54.1H189C189 53.8 188.9 53.5 188.6 53.4C188.4 53.2 188.1 53.1 187.7 53.1C187.4 53.1 187.1 53.2 186.9 53.3C186.7 53.5 186.6 53.7 186.6 53.9C186.6 54.1 186.7 54.3 186.8 54.4C186.9 54.5 187.1 54.6 187.3 54.7C187.5 54.8 187.7 54.9 188 54.9C188.4 55 188.7 55.1 188.9 55.2C189.1 55.3 189.3 55.4 189.5 55.6C189.7 55.8 189.7 56 189.8 56.3C189.8 56.6 189.7 56.8 189.6 57.1C189.4 57.3 189.2 57.5 189 57.6C188.8 57.7 188.4 57.8 188 57.8C187.2 57.8 186.7 57.7 186.3 57.4Z" fill="white"/>
<path d="M196.1 50.7C196 50.6 195.9 50.6 195.7 50.6C195.6 50.6 195.5 50.6 195.4 50.7C195.3 50.8 195.3 50.9 195.3 51.1C195.3 51.2 195.3 51.4 195.4 51.5C195.5 51.6 195.6 51.6 195.7 51.6C195.8 51.6 196 51.6 196.1 51.5C196.2 51.4 196.2 51.3 196.2 51.1C196.2 50.9 196.2 50.8 196.1 50.7ZM195.4 52.5V57.7H196.1V52.5H195.4Z" fill="white"/>
<path d="M202.6 53C203 53.4 203.2 53.9 203.2 54.7V57.8H202.5V54.8C202.5 54.2 202.4 53.8 202.1 53.5C201.8 53.2 201.4 53 200.9 53C200.4 53 200 53.2 199.7 53.5C199.4 53.8 199.2 54.3 199.2 54.9V57.8H198.6V52.6H199.3V53.5C199.5 53.2 199.7 52.9 200 52.8C200.3 52.6 200.7 52.5 201.1 52.5C201.6 52.4 202.2 52.6 202.6 53Z" fill="white"/>
<path d="M216.9 53C217.3 53.4 217.5 53.9 217.5 54.7V57.8H216.8V54.8C216.8 54.2 216.7 53.8 216.4 53.5C216.1 53.2 215.7 53 215.3 53C214.8 53 214.4 53.2 214.1 53.5C213.8 53.8 213.7 54.3 213.7 54.9V57.7H213V54.7C213 54.1 212.9 53.7 212.6 53.4C212.3 53.1 211.9 52.9 211.5 52.9C211 52.9 210.6 53.1 210.3 53.4C210 53.7 209.9 54.2 209.9 54.8V57.6H209.2V52.4H209.9V53.3C210.1 53 210.3 52.7 210.6 52.6C210.9 52.4 211.2 52.3 211.6 52.3C212.1 52.3 212.5 52.4 212.8 52.6C213.1 52.8 213.4 53.1 213.5 53.6C213.6 53.2 213.9 52.9 214.2 52.6C214.5 52.4 214.9 52.3 215.4 52.3C216.1 52.4 216.6 52.6 216.9 53Z" fill="white"/>
<path d="M220.7 50.7C220.6 50.6 220.5 50.6 220.4 50.6C220.3 50.6 220.2 50.6 220.1 50.7C220 50.8 220 50.9 220 51.1C220 51.2 220 51.4 220.1 51.5C220.2 51.6 220.3 51.6 220.4 51.6C220.5 51.6 220.7 51.6 220.7 51.5C220.8 51.4 220.8 51.3 220.8 51.1C220.8 50.9 220.7 50.8 220.7 50.7ZM220 52.5V57.7H220.7V52.5H220Z" fill="white"/>
<path d="M227.1 53C227.5 53.4 227.7 53.9 227.7 54.7V57.8H227V54.8C227 54.2 226.9 53.8 226.6 53.5C226.3 53.2 225.9 53 225.4 53C224.9 53 224.5 53.2 224.2 53.5C223.9 53.8 223.7 54.3 223.7 54.9V57.8H223V52.6H223.7V53.5C223.9 53.2 224.1 52.9 224.4 52.8C224.7 52.6 225.1 52.5 225.5 52.5C226.2 52.4 226.7 52.6 227.1 53Z" fill="white"/>
<path d="M234.7 52.5V57.7H234V56.8C233.8 57.1 233.6 57.4 233.3 57.5C233 57.7 232.6 57.8 232.2 57.8C231.6 57.8 231.1 57.6 230.7 57.2C230.3 56.8 230.1 56.3 230.1 55.5V52.4H230.8V55.4C230.8 56 230.9 56.4 231.2 56.7C231.5 57 231.9 57.2 232.4 57.2C232.9 57.2 233.3 57 233.6 56.7C233.9 56.4 234.1 55.9 234.1 55.3V52.4H234.7V52.5Z" fill="white"/>
<path d="M238.1 53.1V56.4C238.1 56.7 238.2 56.9 238.3 57.1C238.4 57.2 238.6 57.3 238.9 57.3H239.5V57.9H238.8C238.3 57.9 238 57.8 237.7 57.6C237.5 57.4 237.4 57 237.4 56.5V53.2H236.7V52.6H237.4V51.3H238.1V52.6H239.5V53.2H238.1V53.1Z" fill="white"/>
<path d="M246.3 54.9C246.3 54.5 246.2 54 246 53.7C245.8 53.3 245.5 53 245.1 52.8C244.7 52.6 244.3 52.5 243.8 52.5C243.3 52.5 242.9 52.6 242.5 52.8C242.1 53 241.8 53.3 241.6 53.7C241.4 54.1 241.3 54.6 241.3 55.1C241.3 55.6 241.4 56.1 241.6 56.5C241.8 56.9 242.1 57.2 242.5 57.4C242.9 57.6 243.3 57.7 243.8 57.7C244.4 57.7 245 57.5 245.4 57.2C245.8 56.9 246.1 56.5 246.2 55.9H245.5C245.4 56.3 245.2 56.5 244.9 56.8C244.6 57 244.2 57.1 243.8 57.1C243.5 57.1 243.2 57 242.9 56.9C242.6 56.8 242.4 56.5 242.2 56.3C242 56 241.9 55.7 241.9 55.3H246.3C246.3 55.3 246.3 55.1 246.3 54.9ZM242 54.9C242 54.3 242.2 53.9 242.6 53.5C242.9 53.2 243.4 53 243.9 53C244.2 53 244.5 53.1 244.8 53.2C245.1 53.3 245.3 53.6 245.5 53.8C245.7 54.1 245.7 54.4 245.7 54.8H242V54.9Z" fill="white"/>
<path d="M248.8 57.4C248.4 57.1 248.2 56.7 248.2 56.3H248.9C248.9 56.6 249.1 56.8 249.3 57C249.5 57.2 249.9 57.3 250.3 57.3C250.7 57.3 251 57.2 251.2 57C251.4 56.8 251.5 56.6 251.5 56.4C251.5 56.2 251.4 56.1 251.3 56C251.2 55.9 251 55.8 250.9 55.7C250.8 55.6 250.5 55.6 250.2 55.5C249.8 55.4 249.5 55.3 249.2 55.2C249 55.1 248.7 54.9 248.6 54.7C248.4 54.5 248.3 54.2 248.3 53.9C248.3 53.6 248.4 53.4 248.5 53.2C248.7 53 248.9 52.8 249.2 52.7C249.5 52.6 249.8 52.5 250.2 52.5C250.8 52.5 251.2 52.6 251.6 52.9C251.9 53.2 252.1 53.6 252.2 54.1H251.5C251.5 53.8 251.4 53.5 251.1 53.4C250.9 53.2 250.6 53.1 250.2 53.1C249.9 53.1 249.6 53.2 249.4 53.3C249.2 53.5 249.1 53.7 249.1 53.9C249.1 54.1 249.2 54.3 249.3 54.4C249.4 54.5 249.6 54.6 249.8 54.7C250 54.8 250.2 54.9 250.5 54.9C250.9 55 251.2 55.1 251.4 55.2C251.6 55.3 251.8 55.4 252 55.6C252.2 55.8 252.2 56 252.2 56.3C252.2 56.6 252.1 56.8 252 57.1C251.8 57.3 251.6 57.5 251.4 57.6C251.1 57.7 250.8 57.8 250.4 57.8C249.7 57.8 249.2 57.7 248.8 57.4Z" fill="white"/>
<path d="M76.4 18.5C75.1 16 73.3 14.1 70.9 12.7C68.6 11.3 66 10.6 63.2 10.6C60.7 10.6 58.5 11.1 56.6 12.1C54.6 13.1 53.1 14.4 52 15.8V11.1L45.3 13.1V57.8H52V38.7C53.2 40.2 54.8 41.4 56.7 42.4C58.6 43.4 60.8 43.9 63.3 43.9C66.1 43.9 68.7 43.2 71 41.8C73.3 40.4 75.2 38.4 76.5 35.8C77.8 33.3 78.5 30.3 78.5 27.1C78.4 23.9 77.7 21 76.4 18.5ZM70.2 33C69.3 34.7 68.1 36 66.6 36.8C65.1 37.7 63.5 38.1 61.8 38.1C60.1 38.1 58.5 37.7 57 36.8C55.5 35.9 54.3 34.7 53.4 33C52.5 31.3 52 29.4 52 27.2C52 25 52.4 23 53.4 21.4C54.3 19.8 55.5 18.5 57 17.6C58.5 16.7 60.1 16.3 61.8 16.3C63.5 16.3 65.1 16.7 66.6 17.6C68.1 18.4 69.3 19.7 70.2 21.3C71.1 22.9 71.6 24.8 71.6 27.1C71.6 29.4 71.2 31.3 70.2 33Z" fill="white"/>
<path d="M114 18.5C112.7 16 110.9 14.1 108.5 12.7C106.2 11.3 103.6 10.6 100.8 10.6C98.3 10.6 96.1 11.1 94.2 12.1C92.3 13.1 90.7 14.4 89.6 15.8V11.1L82.9 13.1V57.8H89.6V38.7C90.8 40.2 92.4 41.4 94.3 42.4C96.2 43.4 98.4 43.9 100.9 43.9C103.7 43.9 106.3 43.2 108.6 41.8C110.9 40.4 112.7 38.4 114.1 35.8C115.4 33.3 116.1 30.3 116.1 27.1C116 23.9 115.3 21 114 18.5ZM107.8 33C106.9 34.7 105.7 36 104.2 36.8C102.7 37.7 101.1 38.1 99.4 38.1C97.7 38.1 96.1 37.7 94.6 36.8C93.1 35.9 91.9 34.7 91 33C90.1 31.3 89.6 29.4 89.6 27.2C89.6 25 90.1 23 91 21.4C91.9 19.8 93.1 18.5 94.6 17.6C96.1 16.7 97.7 16.3 99.4 16.3C101.1 16.3 102.7 16.7 104.2 17.6C105.7 18.4 106.9 19.7 107.8 21.3C108.7 22.9 109.2 24.8 109.2 27.1C109.2 29.4 108.7 31.3 107.8 33Z" fill="white"/>
<path d="M26.1 0L14.4 3.2L0 43.6H7.39996L12.1 29.8L18.7 32.3L28.5 27.7L33.5 43.6H40.9L26.1 0ZM18.6 26.4L13.7 24.7L19.1 8.7L22.1 7.8L26.7 22.5L18.6 26.4Z" fill="white"/>
<path d="M257 34.4C257 36.2 256.5 37.9 255.5 39.3C254.5 40.7 253 41.9 251.2 42.7C249.3 43.5 247.2 43.9 244.7 43.9C242.2 43.9 239.9 43.4 237.9 42.5C235.9 41.6 234.3 40.3 233.1 38.7C232.6 38.1 232.3 37.4 232 36.7L232.2 36.6L238.3 34.3C238.6 35.3 239.2 36.1 240.1 36.8C241.3 37.7 242.8 38.2 244.6 38.2C246.5 38.2 247.9 37.8 249 37.1C250 36.4 250.5 35.5 250.5 34.3C250.5 33.1 249.9 32.2 248.8 31.6C248.4 31.4 247.9 31.2 247.3 30.9C246.5 30.6 245.6 30.3 244.5 30C244.1 29.9 243.7 29.8 243.3 29.7C240.9 29 238.9 28.4 237.4 27.8C235.9 27.2 234.6 26.2 233.4 24.9C232.3 23.6 231.7 21.9 231.7 19.8C231.7 18.1 232.2 16.5 233.2 15.1C234.2 13.7 235.7 12.6 237.6 11.7C239.5 10.9 241.7 10.5 244.1 10.5C247.8 10.5 250.7 11.4 253 13.3C254.4 14.5 255.4 15.9 256 17.6L255.9 17.7L249.8 20C249.6 19 249 18.1 248.2 17.4C247.1 16.5 245.7 16.1 243.9 16.1C242.1 16.1 240.8 16.4 239.9 17.1C239 17.8 238.5 18.6 238.5 19.7C238.5 20.6 238.8 21.3 239.4 21.9C240 22.5 240.8 22.9 241.7 23.3C242.6 23.6 243.9 24 245.7 24.6C248 25.2 250 25.8 251.5 26.5C253 27.1 254.3 28.1 255.4 29.3C256.4 30.7 257 32.3 257 34.4Z" fill="white"/>
<path d="M177.2 11.1V43.4H170.5V13.1L177.2 11.1Z" fill="white"/>
<path d="M177.2 0.799988V6.69998L170.6 8.69998V2.79999L177.2 0.799988Z" fill="white"/>
<path d="M213.3 24.4V43.4H206.6V25.4C206.6 22.5 205.9 20.3 204.4 18.8C203 17.3 201 16.5 198.5 16.5C196 16.5 194 17.3 192.5 18.8C191 20.3 190.3 22.6 190.3 25.4V43.4H183.6V13.1L190.3 11.1V14.8C191.4 13.5 192.8 12.4 194.5 11.7C196.2 11 198 10.6 199.9 10.6C202.4 10.6 204.7 11.1 206.7 12.2C208.7 13.3 210.3 14.8 211.4 16.9C212.7 19 213.3 21.5 213.3 24.4Z" fill="white"/>
<path d="M226.4 0.799988V6.69998L219.8 8.69998V2.79999L226.4 0.799988Z" fill="white"/>
<path d="M226.4 11.1V43.4H219.8V13.1L226.4 11.1Z" fill="white"/>
<path d="M164 3V43.6H157.3V15.8L144.9 43.6H140.3L127.9 15.8V43.6H121.2V5.10001L128.4 3L142.7 34.8L155.8 5.39999L164 3Z" fill="white"/>
</svg>
