<svg width="258" height="61" viewBox="0 0 258 61" fill="none" xmlns="http://www.w3.org/2000/svg">
<path d="M122.5 53C122.8 52.5 123.2 52.1 123.7 51.8C124.2 51.5 124.8 51.4 125.4 51.4C126.1 51.4 126.8 51.6 127.3 51.9C127.8 52.3 128.2 52.8 128.5 53.4H127.7C127.5 52.9 127.2 52.6 126.8 52.3C126.4 52 125.9 51.9 125.4 51.9C124.9 51.9 124.5 52 124.1 52.2C123.7 52.4 123.4 52.8 123.2 53.2C123 53.6 122.9 54.1 122.9 54.7C122.9 55.3 123 55.8 123.2 56.2C123.4 56.6 123.7 57 124.1 57.2C124.5 57.4 124.9 57.5 125.4 57.5C126 57.5 126.4 57.4 126.8 57.1C127.2 56.8 127.5 56.5 127.7 56H128.5C128.3 56.6 127.9 57.1 127.3 57.5C126.8 57.9 126.1 58 125.4 58C124.8 58 124.2 57.9 123.7 57.6C123.2 57.3 122.8 56.9 122.5 56.4C122.2 55.9 122.1 55.3 122.1 54.6C122 54.1 122.2 53.5 122.5 53Z" fill="black"/>
<path d="M132.1 53C132.4 52.8 132.8 52.7 133.2 52.7V53.4H133C132.5 53.4 132.1 53.5 131.8 53.8C131.5 54.1 131.4 54.5 131.4 55.1V58H130.7V52.8H131.4V53.7C131.5 53.5 131.8 53.2 132.1 53Z" fill="black"/>
<path d="M139.9 55.2C139.9 54.8 139.8 54.3 139.6 54C139.4 53.6 139.1 53.3 138.7 53.1C138.3 52.9 137.9 52.8 137.4 52.8C136.9 52.8 136.5 52.9 136.1 53.1C135.7 53.3 135.4 53.6 135.2 54C135 54.4 134.9 54.9 134.9 55.4C134.9 55.9 135 56.4 135.2 56.8C135.4 57.2 135.7 57.5 136.1 57.7C136.5 57.9 136.9 58 137.4 58C138 58 138.6 57.8 139 57.5C139.4 57.2 139.7 56.8 139.8 56.2H139.1C139 56.6 138.8 56.8 138.5 57.1C138.2 57.3 137.8 57.4 137.4 57.4C137.1 57.4 136.8 57.3 136.5 57.2C136.2 57.1 136 56.8 135.8 56.6C135.6 56.3 135.5 56 135.5 55.6H139.9C139.9 55.6 139.9 55.4 139.9 55.2ZM135.5 55.2C135.5 54.6 135.7 54.2 136.1 53.8C136.5 53.5 136.9 53.3 137.4 53.3C137.7 53.3 138 53.4 138.3 53.5C138.6 53.6 138.8 53.9 139 54.1C139.2 54.4 139.2 54.7 139.2 55.1H135.5V55.2Z" fill="black"/>
<path d="M146.3 52.8V53.9C146.1 53.5 145.9 53.3 145.5 53C145.1 52.8 144.7 52.7 144.2 52.7C143.7 52.7 143.3 52.8 142.9 53C142.5 53.2 142.2 53.5 142 53.9C141.8 54.3 141.7 54.8 141.7 55.3C141.7 55.8 141.8 56.3 142 56.7C142.2 57.1 142.5 57.4 142.9 57.6C143.3 57.8 143.7 57.9 144.2 57.9C144.7 57.9 145.1 57.8 145.5 57.5C145.9 57.3 146.1 57 146.3 56.6V57.8H147V52.6H146.3V52.8ZM146.1 56.6C145.9 56.9 145.7 57.2 145.4 57.3C145.1 57.5 144.8 57.6 144.4 57.6C144 57.6 143.7 57.5 143.4 57.3C143.1 57.1 142.9 56.9 142.7 56.6C142.5 56.3 142.4 55.9 142.4 55.5C142.4 55.1 142.5 54.7 142.7 54.4C142.9 54.1 143.1 53.8 143.4 53.7C143.7 53.5 144 53.4 144.4 53.4C144.8 53.4 145.1 53.5 145.4 53.7C145.7 53.9 145.9 54.1 146.1 54.4C146.3 54.7 146.4 55.1 146.4 55.5C146.4 55.9 146.3 56.3 146.1 56.6Z" fill="black"/>
<path d="M150.4 53.4V56.7C150.4 57 150.5 57.2 150.6 57.4C150.7 57.5 150.9 57.6 151.2 57.6H151.8V58.2H151.1C150.6 58.2 150.3 58.1 150 57.9C149.8 57.7 149.7 57.3 149.7 56.8V53.5H149V52.9H149.7V51.6H150.4V52.9H151.8V53.5H150.4V53.4Z" fill="black"/>
<path d="M158.6 55.2C158.6 54.8 158.5 54.3 158.3 54C158.1 53.6 157.8 53.3 157.4 53.1C157 52.9 156.6 52.8 156.1 52.8C155.6 52.8 155.2 52.9 154.8 53.1C154.4 53.3 154.1 53.6 153.9 54C153.7 54.4 153.6 54.9 153.6 55.4C153.6 55.9 153.7 56.4 153.9 56.8C154.1 57.2 154.4 57.5 154.8 57.7C155.2 57.9 155.6 58 156.1 58C156.7 58 157.3 57.8 157.7 57.5C158.1 57.2 158.4 56.8 158.5 56.2H157.8C157.7 56.6 157.5 56.8 157.2 57.1C156.9 57.3 156.5 57.4 156.1 57.4C155.8 57.4 155.5 57.3 155.2 57.2C154.9 57.1 154.7 56.8 154.5 56.6C154.3 56.3 154.2 56 154.2 55.6H158.6C158.6 55.6 158.6 55.4 158.6 55.2ZM154.3 55.2C154.3 54.6 154.5 54.2 154.9 53.8C155.3 53.5 155.7 53.3 156.2 53.3C156.5 53.3 156.8 53.4 157.1 53.5C157.4 53.6 157.6 53.9 157.8 54.1C158 54.4 158 54.7 158 55.1H154.3V55.2Z" fill="black"/>
<path d="M168.7 52.8V53.9C168.5 53.5 168.3 53.3 167.9 53C167.5 52.8 167.1 52.7 166.6 52.7C166.1 52.7 165.7 52.8 165.3 53C164.9 53.2 164.6 53.5 164.4 53.9C164.2 54.3 164.1 54.8 164.1 55.3C164.1 55.8 164.2 56.3 164.4 56.7C164.6 57.1 164.9 57.4 165.3 57.6C165.7 57.8 166.1 57.9 166.6 57.9C167.1 57.9 167.5 57.8 167.9 57.5C168.3 57.3 168.5 57 168.7 56.6V57.8H169.4V52.6H168.7V52.8ZM168.4 56.6C168.2 56.9 168 57.2 167.7 57.3C167.4 57.5 167.1 57.6 166.7 57.6C166.3 57.6 166 57.5 165.7 57.3C165.4 57.1 165.2 56.9 165 56.6C164.8 56.3 164.7 55.9 164.7 55.5C164.7 55.1 164.8 54.7 165 54.4C165.2 54.1 165.4 53.8 165.7 53.7C166 53.5 166.3 53.4 166.7 53.4C167.1 53.4 167.4 53.5 167.7 53.7C168 53.9 168.2 54.1 168.4 54.4C168.6 54.7 168.7 55.1 168.7 55.5C168.7 55.9 168.6 56.3 168.4 56.6Z" fill="black"/>
<path d="M176.8 54C176.6 53.6 176.3 53.3 175.9 53.1C175.5 52.9 175.1 52.8 174.6 52.8C174.1 52.8 173.7 52.9 173.3 53.2C172.9 53.4 172.7 53.7 172.5 54.1V53H171.8V60.7H172.5V57.1C172.7 57.5 172.9 57.7 173.3 58C173.7 58.2 174.1 58.4 174.6 58.4C175.1 58.4 175.5 58.3 175.9 58.1C176.3 57.9 176.6 57.6 176.8 57.2C177 56.8 177.1 56.3 177.1 55.8C177.1 54.9 177 54.5 176.8 54ZM176.2 56.6C176 56.9 175.8 57.2 175.5 57.3C175.2 57.5 174.9 57.6 174.5 57.6C174.1 57.6 173.8 57.5 173.5 57.3C173.2 57.1 173 56.9 172.8 56.6C172.6 56.3 172.5 55.9 172.5 55.5C172.5 55.1 172.6 54.7 172.8 54.4C173 54.1 173.2 53.8 173.5 53.7C173.8 53.5 174.1 53.4 174.5 53.4C174.9 53.4 175.2 53.5 175.5 53.7C175.8 53.9 176 54.1 176.2 54.4C176.4 54.7 176.5 55.1 176.5 55.5C176.4 55.9 176.3 56.3 176.2 56.6Z" fill="black"/>
<path d="M184.2 54C184 53.6 183.7 53.3 183.3 53.1C182.9 52.9 182.5 52.8 182 52.8C181.5 52.8 181.1 52.9 180.7 53.2C180.3 53.4 180.1 53.7 179.9 54.1V53H179.2V60.7H179.9V57.1C180.1 57.5 180.3 57.7 180.7 58C181.1 58.2 181.5 58.4 182 58.4C182.5 58.4 182.9 58.3 183.3 58.1C183.7 57.9 184 57.6 184.2 57.2C184.4 56.8 184.5 56.3 184.5 55.8C184.5 54.9 184.4 54.5 184.2 54ZM183.6 56.6C183.4 56.9 183.2 57.2 182.9 57.3C182.6 57.5 182.3 57.6 181.9 57.6C181.5 57.6 181.2 57.5 180.9 57.3C180.6 57.1 180.4 56.9 180.2 56.6C180 56.3 179.9 55.9 179.9 55.5C179.9 55.1 180 54.7 180.2 54.4C180.4 54.1 180.6 53.8 180.9 53.7C181.2 53.5 181.5 53.4 181.9 53.4C182.3 53.4 182.6 53.5 182.9 53.7C183.2 53.9 183.4 54.1 183.6 54.4C183.8 54.7 183.9 55.1 183.9 55.5C183.9 55.9 183.8 56.3 183.6 56.6Z" fill="black"/>
<path d="M187.1 57.8C186.7 57.5 186.5 57.1 186.5 56.7H187.2C187.2 57 187.4 57.2 187.6 57.4C187.8 57.6 188.2 57.7 188.6 57.7C189 57.7 189.3 57.6 189.5 57.4C189.7 57.2 189.8 57 189.8 56.8C189.8 56.6 189.7 56.5 189.6 56.4C189.5 56.3 189.3 56.2 189.2 56.1C189.1 56 188.8 56 188.5 55.9C188.1 55.8 187.8 55.7 187.5 55.6C187.3 55.5 187 55.3 186.9 55.1C186.7 54.9 186.6 54.6 186.6 54.3C186.6 54 186.7 53.8 186.8 53.6C187 53.4 187.2 53.2 187.5 53.1C187.8 53 188.1 52.9 188.5 52.9C189.1 52.9 189.5 53 189.9 53.3C190.2 53.6 190.4 54 190.5 54.5H189.8C189.8 54.2 189.7 53.9 189.4 53.8C189.2 53.6 188.9 53.5 188.5 53.5C188.2 53.5 187.9 53.6 187.7 53.7C187.5 53.9 187.4 54.1 187.4 54.3C187.4 54.5 187.5 54.7 187.6 54.8C187.7 54.9 187.9 55 188.1 55.1C188.3 55.2 188.5 55.3 188.8 55.3C189.2 55.4 189.5 55.5 189.7 55.6C189.9 55.7 190.1 55.8 190.3 56C190.5 56.2 190.5 56.4 190.6 56.7C190.6 57 190.5 57.2 190.4 57.5C190.2 57.7 190 57.9 189.8 58C189.6 58.1 189.2 58.2 188.8 58.2C187.9 58.2 187.5 58 187.1 57.8Z" fill="black"/>
<path d="M196.9 51C196.8 50.9 196.7 50.9 196.5 50.9C196.4 50.9 196.3 50.9 196.2 51C196.1 51.1 196.1 51.2 196.1 51.4C196.1 51.5 196.1 51.7 196.2 51.8C196.3 51.9 196.4 51.9 196.5 51.9C196.6 51.9 196.8 51.9 196.9 51.8C197 51.7 197 51.6 197 51.4C197 51.2 197 51.1 196.9 51ZM196.2 52.8V58H196.9V52.8H196.2Z" fill="black"/>
<path d="M203.3 53.3C203.7 53.7 203.9 54.2 203.9 55V58.1H203.2V55.1C203.2 54.5 203.1 54.1 202.8 53.8C202.5 53.5 202.1 53.3 201.6 53.3C201.1 53.3 200.7 53.5 200.4 53.8C200.1 54.1 199.9 54.6 199.9 55.2V58.1H199.2V52.9H199.9V53.8C200.1 53.5 200.3 53.2 200.6 53.1C200.9 52.9 201.3 52.8 201.7 52.8C202.4 52.8 202.9 52.9 203.3 53.3Z" fill="black"/>
<path d="M217.7 53.3C218.1 53.7 218.3 54.2 218.3 55V58.1H217.6V55.1C217.6 54.5 217.5 54.1 217.2 53.8C216.9 53.5 216.5 53.3 216.1 53.3C215.6 53.3 215.2 53.5 214.9 53.8C214.6 54.1 214.5 54.6 214.5 55.2V58H213.8V55C213.8 54.4 213.7 54 213.4 53.7C213.1 53.4 212.7 53.2 212.3 53.2C211.8 53.2 211.4 53.4 211.1 53.7C210.8 54 210.7 54.5 210.7 55.1V57.9H210V52.7H210.7V53.6C210.9 53.3 211.1 53 211.4 52.9C211.7 52.7 212 52.6 212.4 52.6C212.9 52.6 213.3 52.7 213.6 52.9C213.9 53.1 214.2 53.4 214.3 53.9C214.4 53.5 214.7 53.2 215 52.9C215.3 52.7 215.7 52.6 216.2 52.6C216.8 52.8 217.3 52.9 217.7 53.3Z" fill="black"/>
<path d="M221.4 51C221.3 50.9 221.2 50.9 221.1 50.9C221 50.9 220.9 50.9 220.8 51C220.7 51.1 220.7 51.2 220.7 51.4C220.7 51.5 220.7 51.7 220.8 51.8C220.9 51.9 221 51.9 221.1 51.9C221.2 51.9 221.4 51.9 221.4 51.8C221.5 51.7 221.5 51.6 221.5 51.4C221.6 51.2 221.5 51.1 221.4 51ZM220.8 52.8V58H221.5V52.8H220.8Z" fill="black"/>
<path d="M227.9 53.3C228.3 53.7 228.5 54.2 228.5 55V58.1H227.8V55.1C227.8 54.5 227.7 54.1 227.4 53.8C227.1 53.5 226.7 53.3 226.2 53.3C225.7 53.3 225.3 53.5 225 53.8C224.7 54.1 224.5 54.6 224.5 55.2V58.1H223.8V52.9H224.5V53.8C224.7 53.5 224.9 53.2 225.2 53.1C225.5 52.9 225.9 52.8 226.3 52.8C227 52.8 227.5 52.9 227.9 53.3Z" fill="black"/>
<path d="M235.5 52.8V58H234.8V57.1C234.6 57.4 234.4 57.7 234.1 57.8C233.8 58 233.4 58.1 233 58.1C232.4 58.1 231.9 57.9 231.5 57.5C231.1 57.1 230.9 56.6 230.9 55.8V52.7H231.6V55.7C231.6 56.3 231.7 56.7 232 57C232.3 57.3 232.7 57.5 233.2 57.5C233.7 57.5 234.1 57.3 234.4 57C234.7 56.7 234.9 56.2 234.9 55.6V52.7H235.5V52.8Z" fill="black"/>
<path d="M238.9 53.4V56.7C238.9 57 239 57.2 239.1 57.4C239.2 57.5 239.4 57.6 239.7 57.6H240.3V58.2H239.6C239.1 58.2 238.8 58.1 238.5 57.9C238.3 57.7 238.2 57.3 238.2 56.8V53.5H237.5V52.9H238.2V51.6H238.9V52.9H240.3V53.5H238.9V53.4Z" fill="black"/>
<path d="M247.1 55.2C247.1 54.8 247 54.3 246.8 54C246.6 53.6 246.3 53.3 245.9 53.1C245.5 52.9 245.1 52.8 244.6 52.8C244.1 52.8 243.7 52.9 243.3 53.1C242.9 53.3 242.6 53.6 242.4 54C242.2 54.4 242.1 54.9 242.1 55.4C242.1 55.9 242.2 56.4 242.4 56.8C242.6 57.2 242.9 57.5 243.3 57.7C243.7 57.9 244.1 58 244.6 58C245.2 58 245.8 57.8 246.2 57.5C246.6 57.2 246.9 56.8 247 56.2H246.3C246.2 56.6 246 56.8 245.7 57.1C245.4 57.3 245 57.4 244.6 57.4C244.3 57.4 244 57.3 243.7 57.2C243.4 57.1 243.2 56.8 243 56.6C242.8 56.3 242.7 56 242.7 55.6H247.1C247.1 55.6 247.1 55.4 247.1 55.2ZM242.7 55.2C242.7 54.6 242.9 54.2 243.3 53.8C243.6 53.5 244.1 53.3 244.6 53.3C244.9 53.3 245.2 53.4 245.5 53.5C245.8 53.6 246 53.9 246.2 54.1C246.4 54.4 246.4 54.7 246.4 55.1H242.7V55.2Z" fill="black"/>
<path d="M249.6 57.8C249.2 57.5 249 57.1 249 56.7H249.7C249.7 57 249.9 57.2 250.1 57.4C250.3 57.6 250.7 57.7 251.1 57.7C251.5 57.7 251.8 57.6 252 57.4C252.2 57.2 252.3 57 252.3 56.8C252.3 56.6 252.2 56.5 252.1 56.4C252 56.3 251.8 56.2 251.7 56.1C251.5 56 251.3 56 251 55.9C250.6 55.8 250.3 55.7 250 55.6C249.8 55.5 249.5 55.3 249.4 55.1C249.2 54.9 249.1 54.6 249.1 54.3C249.1 54 249.2 53.8 249.3 53.6C249.5 53.4 249.7 53.2 250 53.1C250.3 53 250.6 52.9 251 52.9C251.6 52.9 252 53 252.4 53.3C252.7 53.6 252.9 54 253 54.5H252.3C252.3 54.2 252.2 53.9 251.9 53.8C251.7 53.6 251.4 53.5 251 53.5C250.7 53.5 250.4 53.6 250.2 53.7C250 53.9 249.9 54.1 249.9 54.3C249.9 54.5 250 54.7 250.1 54.8C250.2 54.9 250.4 55 250.6 55.1C250.8 55.2 251 55.3 251.3 55.3C251.7 55.4 252 55.5 252.2 55.6C252.4 55.7 252.6 55.8 252.8 56C253 56.2 253 56.4 253 56.7C253 57 252.9 57.2 252.8 57.5C252.6 57.7 252.4 57.9 252.2 58C252 58.1 251.6 58.2 251.2 58.2C250.5 58.2 250 58 249.6 57.8Z" fill="black"/>
<path d="M77.2 18.8C75.9 16.3 74.1 14.4 71.7 13C69.4 11.6 66.8 10.9 64 10.9C61.5 10.9 59.3 11.4 57.4 12.4C55.4 13.4 53.9 14.7 52.8 16.1V11.4L46.1 13.4V58.1H52.8V39C54 40.5 55.6 41.7 57.5 42.7C59.4 43.7 61.6 44.2 64.1 44.2C66.9 44.2 69.5 43.5 71.8 42.1C74.1 40.7 76 38.7 77.3 36.1C78.6 33.6 79.3 30.6 79.3 27.4C79.3 24.2 78.5 21.3 77.2 18.8ZM71 33.3C70.1 35 68.9 36.3 67.4 37.1C65.9 38 64.3 38.4 62.6 38.4C60.9 38.4 59.3 38 57.8 37.1C56.3 36.2 55.1 35 54.2 33.3C53.3 31.6 52.8 29.7 52.8 27.5C52.8 25.3 53.2 23.3 54.2 21.7C55.1 20.1 56.3 18.8 57.8 17.9C59.3 17 60.9 16.6 62.6 16.6C64.3 16.6 65.9 17 67.4 17.9C68.9 18.7 70.1 20 71 21.6C71.9 23.2 72.4 25.1 72.4 27.4C72.4 29.7 71.9 31.6 71 33.3Z" fill="black"/>
<path d="M114.7 18.8C113.4 16.3 111.6 14.4 109.2 13C106.9 11.6 104.3 10.9 101.5 10.9C99 10.9 96.8 11.4 94.9 12.4C93 13.4 91.4 14.7 90.3 16.1V11.4L83.6 13.4V58.1H90.3V39C91.5 40.5 93.1 41.7 95 42.7C96.9 43.7 99.1 44.2 101.6 44.2C104.4 44.2 107 43.5 109.3 42.1C111.6 40.7 113.4 38.7 114.8 36.1C116.1 33.6 116.8 30.6 116.8 27.4C116.8 24.2 116.1 21.3 114.7 18.8ZM108.6 33.3C107.7 35 106.5 36.3 105 37.1C103.5 38 101.9 38.4 100.2 38.4C98.5 38.4 96.9 38 95.4 37.1C93.9 36.2 92.7 35 91.8 33.3C90.9 31.6 90.4 29.7 90.4 27.5C90.4 25.3 90.9 23.3 91.8 21.7C92.7 20.1 93.9 18.8 95.4 17.9C96.9 17 98.5 16.6 100.2 16.6C101.9 16.6 103.5 17 105 17.9C106.5 18.7 107.7 20 108.6 21.6C109.5 23.2 110 25.1 110 27.4C110 29.7 109.5 31.6 108.6 33.3Z" fill="black"/>
<path d="M26.9 0.299988L15.2 3.5L0.799988 43.9H8.19998L12.9 30.1L19.5 32.6L29.3 28L34.3 43.9H41.7L26.9 0.299988ZM19.4 26.7L14.5 25L19.9 9L22.9 8.10001L27.5 22.8L19.4 26.7Z" fill="black"/>
<path d="M257.8 34.7C257.8 36.5 257.3 38.2 256.3 39.6C255.3 41 253.8 42.2 252 43C250.1 43.8 248 44.2 245.5 44.2C243 44.2 240.7 43.7 238.7 42.8C236.7 41.9 235.1 40.6 233.9 39C233.4 38.4 233.1 37.7 232.8 37L233 36.9L239.1 34.6C239.4 35.6 240 36.4 240.9 37.1C242.1 38 243.6 38.5 245.4 38.5C247.3 38.5 248.7 38.1 249.8 37.4C250.8 36.7 251.3 35.8 251.3 34.6C251.3 33.4 250.7 32.5 249.6 31.9C249.2 31.7 248.7 31.5 248.1 31.2C247.3 30.9 246.4 30.6 245.3 30.3C244.9 30.2 244.5 30.1 244.1 30C241.7 29.3 239.7 28.7 238.2 28.1C236.7 27.5 235.4 26.5 234.2 25.2C233.1 23.9 232.5 22.2 232.5 20.1C232.5 18.4 233 16.8 234 15.4C235 14 236.5 12.9 238.4 12C240.3 11.2 242.5 10.8 244.9 10.8C248.6 10.8 251.5 11.7 253.8 13.6C255.2 14.8 256.2 16.2 256.8 17.9L256.7 18L250.6 20.3C250.4 19.3 249.8 18.4 249 17.7C247.9 16.8 246.5 16.4 244.7 16.4C242.9 16.4 241.6 16.7 240.7 17.4C239.8 18.1 239.3 18.9 239.3 20C239.3 20.9 239.6 21.6 240.2 22.2C240.8 22.8 241.6 23.2 242.5 23.6C243.4 23.9 244.7 24.3 246.5 24.9C248.8 25.5 250.8 26.1 252.3 26.8C253.8 27.4 255.1 28.4 256.2 29.6C257.2 31 257.8 32.6 257.8 34.7Z" fill="black"/>
<path d="M177.9 11.5V43.7H171.3V13.4L177.9 11.5Z" fill="black"/>
<path d="M178 1.10001V7.10001L171.4 9V3.10001L178 1.10001Z" fill="black"/>
<path d="M214 24.7V43.7H207.4V25.7C207.4 22.8 206.7 20.6 205.2 19.1C203.8 17.6 201.8 16.8 199.3 16.8C196.8 16.8 194.8 17.6 193.3 19.1C191.8 20.6 191.1 22.9 191.1 25.7V43.7H184.4V13.4L191.1 11.4V15.1C192.2 13.8 193.6 12.7 195.3 12C197 11.3 198.8 10.9 200.7 10.9C203.2 10.9 205.5 11.4 207.5 12.5C209.5 13.6 211.1 15.1 212.2 17.2C213.5 19.3 214 21.8 214 24.7Z" fill="black"/>
<path d="M227.2 1.10001V7.10001L220.6 9V3.10001L227.2 1.10001Z" fill="black"/>
<path d="M227.2 11.5V43.7H220.6V13.4L227.2 11.5Z" fill="black"/>
<path d="M164.8 3.29999V43.9H158.1V16.1L145.7 43.9H141.1L128.7 16.1V43.9H122V5.39999L129.2 3.29999L143.5 35.1L156.6 5.70001L164.8 3.29999Z" fill="black"/>
</svg>
